<svg width="48" height="48" fill="none" xmlns="http://www.w3.org/2000/svg"><path d="M9.5 44h29c.275 0 .5-.225.5-.5V14h-8.5c-.827 0-1.5-.673-1.5-1.5V4H9.5c-.275 0-.5.225-.5.5v39c0 .275.225.5.5.5z" fill="#fff"/><path d="M38.293 13 30 4.707V12.5c0 .275.225.5.5.5h7.793z" fill="#fff"/><path opacity=".67" fill-rule="evenodd" clip-rule="evenodd" d="m39.56 12.854-9.414-9.415A1.51 1.51 0 0 0 29.086 3H9.5C8.673 3 8 3.673 8 4.5v39c0 .827.673 1.5 1.5 1.5h29c.827 0 1.5-.673 1.5-1.5V13.914c0-.4-.156-.777-.44-1.06zM30 4.707 38.293 13H30.5a.501.501 0 0 1-.5-.5V4.707zM9.5 44h29c.275 0 .5-.225.5-.5V14h-8.5c-.827 0-1.5-.673-1.5-1.5V4H9.5c-.275 0-.5.225-.5.5v39c0 .276.224.5.5.5z" fill="#605E5C"/><path fill-rule="evenodd" clip-rule="evenodd" d="M12.5 18h23a.5.5 0 0 0 0-1h-23a.5.5 0 0 0 0 1zm0 3h23a.5.5 0 0 0 0-1h-23a.5.5 0 0 0 0 1zm23 3h-23a.5.5 0 0 1 0-1h23a.5.5 0 0 1 0 1zm-23 3h23a.5.5 0 0 0 0-1h-23a.5.5 0 0 0 0 1z" fill="#C8C6C4"/><path clip-rule="evenodd" d="M28 41h-8a2 2 0 0 1-2-2v-6a2 2 0 0 1 2-2h8a2 2 0 0 1 2 2v6a2 2 0 0 1-2 2z" stroke="#D65532" stroke-width="2" stroke-linecap="round" stroke-linejoin="round"/><path fill-rule="evenodd" clip-rule="evenodd" d="M14.75 40H8a1 1 0 0 1-1-1v-5a1 1 0 0 1 1-1h6.75a.25.25 0 0 1 .25.25v6.5a.25.25 0 0 1-.25.25zm18.5-7H40a1 1 0 0 1 1 1v5a1 1 0 0 1-1 1h-6.75a.25.25 0 0 1-.25-.25v-6.5a.25.25 0 0 1 .25-.25z" fill="#D65532"/></svg>